<svg xmlns="http://www.w3.org/2000/svg" xmlns:xlink="http://www.w3.org/1999/xlink" width="100.0" height="100.0" viewBox="6.529999999999999 47.25 4.32 4.319999999999993" preserveAspectRatio="xMinYMin meet"><g transform="matrix(1,0,0,-1,0,98.82)"><path fill-rule="evenodd" fill="#66cc99" stroke="#555555" stroke-width="0.0864" opacity="0.6" d="M 10.69,49.41 L 10.680369453344394,49.21396571934088 L 10.65157056080646,49.01981935596774 L 10.603880671464417,48.82943064549107 L 10.537759065022573,48.64463313526982 L 10.45384252869671,48.467206526348 L 10.352939224605091,48.298859533960794 L 10.236020906725475,48.1412134316727 L 10.104213562373095,47.995786437626904 L 9.958786568327293,47.86397909327452 L 9.801140466039206,47.74706077539491 L 9.632793473651997,47.64615747130329 L 9.45536686473018,47.562240934977424 L 9.270569354508927,47.49611932853558 L 9.080180644032259,47.44842943919354 L 8.886034280659123,47.419630546655604 L 8.690000000000003,47.41 L 8.493965719340881,47.419630546655604 L 8.299819355967747,47.44842943919353 L 8.109430645491079,47.49611932853558 L 7.924633135269824,47.562240934977424 L 7.747206526348008,47.64615747130328 L 7.578859533960799,47.74706077539491 L 7.421213431672712,47.86397909327452 L 7.275786437626907,47.9957864376269 L 7.1439790932745275,48.1412134316727 L 7.027060775394911,48.29885953396079 L 6.926157471303291,48.467206526348 L 6.842240934977427,48.644633135269814 L 6.776119328535582,48.82943064549107 L 6.728429439193539,49.01981935596774 L 6.699630546655606,49.21396571934088 L 6.6899999999999995,49.41 L 6.699630546655605,49.60603428065912 L 6.728429439193539,49.80018064403225 L 6.776119328535581,49.99056935450892 L 6.842240934977426,50.17536686473017 L 6.926157471303289,50.35279347365199 L 7.027060775394909,50.5211404660392 L 7.143979093274526,50.67878656832729 L 7.275786437626904,50.82421356237309 L 7.421213431672708,50.95602090672547 L 7.578859533960793,51.072939224605086 L 7.747206526348002,51.1738425286967 L 7.924633135269817,51.25775906502257 L 8.109430645491072,51.323880671464416 L 8.299819355967738,51.371570560806454 L 8.493965719340874,51.40036945334439 L 8.689999999999994,51.41 L 8.886034280659114,51.40036945334439 L 9.080180644032248,51.37157056080646 L 9.270569354508917,51.323880671464416 L 9.455366864730172,51.257759065022576 L 9.632793473651986,51.17384252869671 L 9.801140466039197,51.07293922460509 L 9.958786568327282,50.95602090672548 L 10.104213562373086,50.8242135623731 L 10.236020906725466,50.6787865683273 L 10.352939224605084,50.52114046603921 L 10.453842528696704,50.35279347365201 L 10.537759065022568,50.17536686473019 L 10.603880671464413,49.990569354508935 L 10.651570560806457,49.80018064403227 L 10.680369453344392,49.60603428065913 L 10.69,49.41000000000001 L 10.69,49.41 z" /></g></svg>